<?xml version="1.0" encoding="UTF-8"?>
<svg version="1.1" xmlns="http://www.w3.org/2000/svg" width="96" height="96">
<path d="M0 0 C3.04958594 1.70922901 5.76337741 3.57108943 8.57275391 5.63500977 C12.39745058 8.38944199 16.0224252 10.51689322 20.38671875 12.32421875 C26.24627993 14.98181127 31.4582062 17.43263511 35 23 C37.7291929 32.31897979 36.79017025 43.09046209 36.01799011 52.65605164 C35.66531668 56.52676148 35.66531668 56.52676148 37.49194336 59.78076172 C37.98960205 60.18311035 38.48726074 60.58545898 39 61 C38.979375 61.99 38.95875 62.98 38.9375 64 C38.958125 64.99 38.97875 65.98 39 67 C39.66 67.474375 40.32 67.94875 41 68.4375 C43 70 43 70 43.5 73.4375 C42.91576751 77.60015646 41.90318697 78.18753762 39 81 C39.020625 81.969375 39.04125 82.93875 39.0625 83.9375 C39 87 39 87 36.875 89.875 C33.50558748 92.36543534 32.06223918 92.18054396 28 92 C27.34 92.99 26.68 93.98 26 95 C23.6875 95.3984375 23.6875 95.3984375 21 95.375 C20.113125 95.38273437 19.22625 95.39046875 18.3125 95.3984375 C17.549375 95.26695313 16.78625 95.13546875 16 95 C15.34 94.01 14.68 93.02 14 92 C13.071875 92.04125 12.14375 92.0825 11.1875 92.125 C9.6096875 92.063125 9.6096875 92.063125 8 92 C7.35844971 91.18700439 6.71689941 90.37400879 6.0559082 89.53637695 C1.37091402 85.64787296 -3.16897701 86.27245364 -9.08203125 86.29296875 C-10.25134689 86.27784744 -11.42066254 86.26272614 -12.62541199 86.24714661 C-16.3546366 86.20421071 -20.08305265 86.19542529 -23.8125 86.1875 C-26.34312054 86.16436049 -28.87372179 86.13899631 -31.40429688 86.11132812 C-37.6028722 86.04841724 -43.80113081 86.01352995 -50 86 C-50.33 85.01 -50.66 84.02 -51 83 C-50 82 -50 82 -47.4375 81.9375 C-46.633125 81.958125 -45.82875 81.97875 -45 82 C-45.0199855 81.27416718 -45.03997101 80.54833435 -45.06056213 79.80050659 C-45.24123157 72.94512199 -45.37808448 66.09009491 -45.46630955 59.23293877 C-45.51319712 55.70764136 -45.57672687 52.18431753 -45.67895508 48.66015625 C-45.79587334 44.6039796 -45.83919104 40.5498599 -45.87890625 36.4921875 C-45.92535782 35.23260223 -45.97180939 33.97301697 -46.01966858 32.67526245 C-46.02459474 24.11856558 -46.02459474 24.11856558 -43.1190033 20.94648743 C-40.81101113 19.38811493 -38.52379745 18.17000675 -36 17 C-35.06857178 16.40759521 -34.13714355 15.81519043 -33.17749023 15.20483398 C-32.39575439 14.72344971 -31.61401855 14.24206543 -30.80859375 13.74609375 C-29.92623047 13.20146484 -29.04386719 12.65683594 -28.13476562 12.09570312 C-27.24466797 11.54849609 -26.35457031 11.00128906 -25.4375 10.4375 C-23.64443563 9.33218635 -21.85146548 8.22671984 -20.05859375 7.12109375 C-19.19991699 6.5988623 -18.34124023 6.07663086 -17.45654297 5.53857422 C-15.88102772 4.55180249 -14.32961719 3.52479004 -12.81298828 2.44970703 C-8.21972613 -0.75440577 -5.63661692 -1.77795002 0 0 Z " fill="#070808" transform="translate(52,1)"/>
<path d="M0 0 C0.63526611 0.35263916 1.27053223 0.70527832 1.92504883 1.06860352 C8.07040883 4.45348703 8.07040883 4.45348703 14.34521484 7.58935547 C34.81421986 17.32800313 34.81421986 17.32800313 37.7086792 24.83898926 C39.96612394 34.27129213 38.51053328 44.56944578 37 54 C35.35 54.33 33.7 54.66 32 55 C29.94687292 51.92030937 29.75002246 51.28031295 29.76953125 47.8046875 C29.77146484 47.00675781 29.77339844 46.20882812 29.77539062 45.38671875 C29.78763672 44.55785156 29.79988281 43.72898438 29.8125 42.875 C29.8134668 41.62009766 29.8134668 41.62009766 29.81445312 40.33984375 C29.85966837 34.14033163 29.85966837 34.14033163 31 33 C31 31.02 31 29.04 31 27 C10.54 27 -9.92 27 -31 27 C-31.33 29.31 -31.66 31.62 -32 34 C-31.34 34 -30.68 34 -30 34 C-30 49.18 -30 64.36 -30 80 C-32.31 80 -34.62 80 -37 80 C-37.03758423 79.03175293 -37.03758423 79.03175293 -37.07592773 78.04394531 C-37.19214433 75.11244106 -37.31475442 72.18123783 -37.4375 69.25 C-37.47681641 68.23421875 -37.51613281 67.2184375 -37.55664062 66.171875 C-37.59853516 65.1921875 -37.64042969 64.2125 -37.68359375 63.203125 C-37.72025146 62.30239258 -37.75690918 61.40166016 -37.79467773 60.47363281 C-37.92911257 58.01256904 -37.92911257 58.01256904 -38.58227539 55.73730469 C-38.72012451 55.16399414 -38.85797363 54.59068359 -39 54 C-38.505 53.505 -38.505 53.505 -38 53 C-38.07478933 50.9186167 -38.2025975 48.83911119 -38.3515625 46.76171875 C-39.2593867 26.37578152 -39.2593867 26.37578152 -35.38232422 20.58300781 C-31.09735028 16.68832196 -25.99460134 14.44399269 -20.70117188 12.21533203 C-16.14210177 10.16408013 -12.02181714 7.4295845 -7.8125 4.75 C-6.30049409 3.82432968 -4.78638905 2.90207311 -3.26953125 1.984375 C-2.19058594 1.32953125 -1.11164062 0.6746875 0 0 Z " fill="#93DB96" transform="translate(47,3)"/>
<path d="M0 0 C19.14 0 38.28 0 58 0 C58 1.32 58 2.64 58 4 C49.42 4 40.84 4 32 4 C32 4.99 32 5.98 32 7 C39.92 7 47.84 7 56 7 C56 12.28 56 17.56 56 23 C53.03 23.495 53.03 23.495 50 24 C49.505 25.485 49.505 25.485 49 27 C46.36 27 43.72 27 41 27 C41 23.04 41 19.08 41 15 C33.74 15.33 26.48 15.66 19 16 C18.67 21.94 18.34 27.88 18 34 C14.7 34 11.4 34 8 34 C8 39.94 8 45.88 8 52 C5.69 52 3.38 52 1 52 C1 37.15 1 22.3 1 7 C9.58 7 18.16 7 27 7 C27 6.01 27 5.02 27 4 C18.09 4 9.18 4 0 4 C0 2.68 0 1.36 0 0 Z " fill="#003F7D" transform="translate(18,31)"/>
<path d="M0 0 C2.3125 -0.1875 2.3125 -0.1875 5 0 C5.680625 0.7115625 5.680625 0.7115625 6.375 1.4375 C8.05828888 3.36882764 8.05828888 3.36882764 11.5625 3.4375 C15 4 15 4 16.375 5.625 C17.19154295 8.7278632 17.63251718 11.81514885 18 15 C18.99 15 19.98 15 21 15 C21 16.98 21 18.96 21 21 C20.01 21.33 19.02 21.66 18 22 C17.9175 23.27875 17.835 24.5575 17.75 25.875 C17.2392638 29.78834356 17.2392638 29.78834356 15.375 31.4375 C12.26686593 32.17363702 9.17179364 32.63402381 6 33 C6 33.99 6 34.98 6 36 C4.02 36 2.04 36 0 36 C0 35.01 0 34.02 0 33 C-0.61488281 32.95101562 -1.22976562 32.90203125 -1.86328125 32.8515625 C-2.67152344 32.77679688 -3.47976562 32.70203125 -4.3125 32.625 C-5.11300781 32.55539063 -5.91351563 32.48578125 -6.73828125 32.4140625 C-9 32 -9 32 -12 30 C-12 27.66666667 -12 25.33333333 -12 23 C-13.45833358 21.37485532 -13.45833358 21.37485532 -15 20 C-15.1875 17.3125 -15.1875 17.3125 -15 15 C-14.01 15 -13.02 15 -12 15 C-12.03480469 14.38511719 -12.06960937 13.77023438 -12.10546875 13.13671875 C-12.13253906 12.32847656 -12.15960938 11.52023438 -12.1875 10.6875 C-12.23970703 9.48673828 -12.23970703 9.48673828 -12.29296875 8.26171875 C-12 6 -12 6 -10.61328125 4.20703125 C-9 3 -9 3 -7 3 C-7 3.66 -7 4.32 -7 5 C-6.401875 4.67 -5.80375 4.34 -5.1875 4 C-3 3 -3 3 0 3 C0 2.01 0 1.02 0 0 Z " fill="#3981C7" transform="translate(70,57)"/>
<path d="M0 0 C0.95289917 0.52895874 0.95289917 0.52895874 1.92504883 1.06860352 C8.07040883 4.45348703 8.07040883 4.45348703 14.34521484 7.58935547 C34.81421986 17.32800313 34.81421986 17.32800313 37.7086792 24.83898926 C39.96612394 34.27129213 38.51053328 44.56944578 37 54 C35.02 54.495 35.02 54.495 33 55 C33.06396973 54.14881592 33.12793945 53.29763184 33.19384766 52.4206543 C34.67400136 36.95512391 34.67400136 36.95512391 30.42773438 22.66064453 C26.33880984 19.03581899 21.4907511 17.04882177 16.45214844 15.06103516 C12.47510062 13.34018193 9.0401491 10.91112762 5.5 8.4375 C4.87206543 8.01823242 4.24413086 7.59896484 3.59716797 7.16699219 C1.20622575 5.57036745 -0.96196422 4.03803578 -3 2 C-2.01 1.34 -1.02 0.68 0 0 Z " fill="#69C998" transform="translate(47,3)"/>
<path d="M0 0 C1.65 0 3.3 0 5 0 C5 4.62 5 9.24 5 14 C4.34 14 3.68 14 3 14 C3 14.99 3 15.98 3 17 C-2.28 17 -7.56 17 -13 17 C-13 11.72 -13 6.44 -13 1 C-11.35 1 -9.7 1 -8 1 C-8 2.98 -8 4.96 -8 7 C-5.36 7 -2.72 7 0 7 C0 4.69 0 2.38 0 0 Z " fill="#FCC143" transform="translate(52,48)"/>
<path d="M0 0 C19.14 0 38.28 0 58 0 C58 1.32 58 2.64 58 4 C38.58156759 4.86491553 19.42594367 5.05282551 0 4 C0 2.68 0 1.36 0 0 Z " fill="#D3DCE0" transform="translate(18,31)"/>
<path d="M0 0 C2.5 1.5625 2.5 1.5625 4 4 C4.72125695 8.40768137 4.52001338 10.25937488 1.9375 13.9375 C-1.74062512 16.52001338 -3.59231863 16.72125695 -8 16 C-10.4375 14.5 -10.4375 14.5 -12 12 C-12.79841448 7.98323437 -12.61897146 5.0316191 -10.5 1.5 C-6.9683809 -0.61897146 -4.01676563 -0.79841448 0 0 Z " fill="#0E1012" transform="translate(77,67)"/>
<path d="M0 0 C1.65 0 3.3 0 5 0 C5 5.28 5 10.56 5 16 C-0.61 16 -6.22 16 -12 16 C-12 11.05 -12 6.1 -12 1 C-10.68 1 -9.36 1 -8 1 C-7.67 2.65 -7.34 4.3 -7 6 C-4.69 6.33 -2.38 6.66 0 7 C0 4.69 0 2.38 0 0 Z " fill="#D17A46" transform="translate(41,67)"/>
<path d="M0 0 C1.65 0 3.3 0 5 0 C5 0.66 5 1.32 5 2 C12.92 2 20.84 2 29 2 C29 7.28 29 12.56 29 18 C27.68 17.67 26.36 17.34 25 17 C25.66 17 26.32 17 27 17 C26.505 11.06 26.505 11.06 26 5 C9.17 4.67 -7.66 4.34 -25 4 C-25 18.19 -25 32.38 -25 47 C-25.33 47 -25.66 47 -26 47 C-26 32.15 -26 17.3 -26 2 C-17.42 2 -8.84 2 0 2 C0 1.34 0 0.68 0 0 Z " fill="#013365" transform="translate(45,36)"/>
<path d="M0 0 C1.921875 1.3515625 1.921875 1.3515625 2.53125 3.515625 C2.57765625 4.32773438 2.6240625 5.13984375 2.671875 5.9765625 C2.72859375 6.79382813 2.7853125 7.61109375 2.84375 8.453125 C2.86953125 9.07960938 2.8953125 9.70609375 2.921875 10.3515625 C3.911875 10.3515625 4.901875 10.3515625 5.921875 10.3515625 C5.921875 12.3315625 5.921875 14.3115625 5.921875 16.3515625 C4.931875 16.6815625 3.941875 17.0115625 2.921875 17.3515625 C2.839375 18.6303125 2.756875 19.9090625 2.671875 21.2265625 C2.19501465 25.13128859 2.19501465 25.13128859 -0.015625 26.9140625 C-2.078125 27.3515625 -2.078125 27.3515625 -4.078125 26.3515625 C-3.748125 25.4234375 -3.418125 24.4953125 -3.078125 23.5390625 C-0.87256451 15.75658478 -1.7750249 7.98058159 -4.078125 0.3515625 C-2.078125 -0.6484375 -2.078125 -0.6484375 0 0 Z " fill="#4D64CC" transform="translate(85.078125,61.6484375)"/>
<path d="M0 0 C3.5625 0.1875 3.5625 0.1875 5.5625 2.1875 C5.8125 5.1875 5.8125 5.1875 5.5625 8.1875 C3.5625 10.1875 3.5625 10.1875 0.625 10.5 C-2.4375 10.1875 -2.4375 10.1875 -4.375 9.0625 C-5.97693488 6.23555609 -5.23334319 4.23823223 -4.4375 1.1875 C-3.4375 0.1875 -3.4375 0.1875 0 0 Z " fill="#E8F1F5" transform="translate(72.4375,69.8125)"/>
<path d="M0 0 C2.31 0 4.62 0 7 0 C7 0.66 7 1.32 7 2 C6.01 2.33 5.02 2.66 4 3 C3.91903197 4.45742463 3.86082226 5.91612807 3.8125 7.375 C3.77769531 8.18710938 3.74289063 8.99921875 3.70703125 9.8359375 C3.80371094 10.55007812 3.90039062 11.26421875 4 12 C4.99 12.66 5.98 13.32 7 14 C7 14.66 7 15.32 7 16 C4.69 16 2.38 16 0 16 C0 10.72 0 5.44 0 0 Z " fill="#C27342" transform="translate(49,67)"/>
<path d="M0 0 C1.65 0 3.3 0 5 0 C5 4.62 5 9.24 5 14 C4.34 14 3.68 14 3 14 C3 14.99 3 15.98 3 17 C-2.28 17 -7.56 17 -13 17 C-13 16.67 -13 16.34 -13 16 C-8.05 16 -3.1 16 2 16 C2 11.05 2 6.1 2 1 C1.34 0.67 0.68 0.34 0 0 Z " fill="#BB872B" transform="translate(52,48)"/>
<path d="M0 0 C0.66 0 1.32 0 2 0 C2 7.26 2 14.52 2 22 C-1 19 -1 19 -1.35644531 17.02294922 C-1.34709961 16.29092285 -1.33775391 15.55889648 -1.328125 14.8046875 C-1.32296875 14.00675781 -1.3178125 13.20882812 -1.3125 12.38671875 C-1.291875 11.55785156 -1.27125 10.72898437 -1.25 9.875 C-1.24484375 9.03839844 -1.2396875 8.20179687 -1.234375 7.33984375 C-1.1541718 1.1541718 -1.1541718 1.1541718 0 0 Z " fill="#97E099" transform="translate(78,36)"/>
<path d="M0 0 C3.49644963 -0.31785906 5.397402 -0.39644605 8.375 1.5625 C10.64970619 4.97455929 10.63534983 6.97611774 10 11 C7.5 13.9375 7.5 13.9375 5 16 C4.67 15.34 4.34 14.68 4 14 C4.66 13.01 5.32 12.02 6 11 C6.33340471 7.95804573 6.33340471 7.95804573 6 5 C3.64046906 2.64046906 2.22104383 2.50858587 -1 2 C-0.67 1.34 -0.34 0.68 0 0 Z " fill="#0A0D10" transform="translate(71,67)"/>
<path d="M0 0 C0.94875 0.350625 1.8975 0.70125 2.875 1.0625 C2.875 1.3925 2.875 1.7225 2.875 2.0625 C1.92625 2.18625 0.9775 2.31 0 2.4375 C-3.21167191 2.77937177 -3.21167191 2.77937177 -5.125 5.0625 C-5.785 5.0625 -6.445 5.0625 -7.125 5.0625 C-4.79166667 -1.4375 -4.79166667 -1.4375 0 0 Z " fill="#1D2429" transform="translate(72.125,67.9375)"/>
<path d="M0 0 C2.31 0 4.62 0 7 0 C7 0.99 7 1.98 7 3 C4.69 3 2.38 3 0 3 C0 2.01 0 1.02 0 0 Z " fill="#151F15" transform="translate(44,20)"/>
<path d="M0 0 C2.31 0 4.62 0 7 0 C7 0.99 7 1.98 7 3 C4.69 3 2.38 3 0 3 C0 2.01 0 1.02 0 0 Z " fill="#0E160F" transform="translate(44,14)"/>
<path d="M0 0 C1.485 0.99 1.485 0.99 3 2 C3.375 5 3.375 5 3 8 C2.01 8.66 1.02 9.32 0 10 C0 6.7 0 3.4 0 0 Z " fill="#D7EDF3" transform="translate(75,70)"/>
</svg>
