<?xml version="1.0" standalone="no"?>
<!DOCTYPE svg PUBLIC "-//W3C//DTD SVG 20010904//EN"
 "http://www.w3.org/TR/2001/REC-SVG-20010904/DTD/svg10.dtd">
<svg version="1.0" xmlns="http://www.w3.org/2000/svg"
 width="96.000000pt" height="96.000000pt" viewBox="0 0 96.000000 96.000000"
 preserveAspectRatio="xMidYMid meet">

<g transform="translate(0.000000,96.000000) scale(0.100000,-0.100000)"
fill="#000000" stroke="none">
<path d="M361 944 c-253 -68 -410 -331 -346 -579 67 -256 329 -415 580 -350
256 67 415 329 350 578 -67 259 -333 419 -584 351z m-148 -245 c82 -42 117
-124 117 -274 l0 -104 -42 -12 c-44 -11 -114 -7 -128 8 -10 10 -14 90 -12 261
2 126 3 132 23 132 11 0 30 -5 42 -11z m249 -127 c15 -9 37 -29 48 -44 20 -28
21 -31 5 -54 -22 -34 -88 -100 -114 -114 -21 -11 -21 -9 -21 115 l0 125 28 -6
c15 -4 39 -14 54 -22z m308 -199 c7 -16 15 -74 18 -130 l4 -103 -91 0 -91 0 0
68 0 67 65 53 c36 29 65 57 65 63 0 19 17 8 30 -18z m-210 -183 l0 -50 -90 0
c-82 0 -90 2 -90 19 0 15 15 24 68 40 37 11 74 25 82 31 26 17 30 11 30 -40z
m-265 -10 c28 0 35 -4 35 -20 0 -19 -7 -20 -90 -20 l-90 0 0 39 0 39 55 -19
c30 -10 70 -19 90 -19z"/>
</g>
</svg>
